<?xml version="1.0" encoding="UTF-8"?>
<svg width="30px" height="30px" viewBox="0 0 30 30" version="1.1" xmlns="http://www.w3.org/2000/svg" xmlns:xlink="http://www.w3.org/1999/xlink">
    <title>我要摆摊</title>
    <g id="页面-1" stroke="none" stroke-width="1" fill="none" fill-rule="evenodd">
        <g id="摊位管理1" fill="#000000" fill-rule="nonzero">
            <path d="M28.0000303,12.296012 C28.0000303,11.2560108 27.4800296,10.3200097 26.6480287,9.64400889 L26.5960286,9.59200883 C26.5440286,9.59200883 26.4920285,9.64400889 26.3880284,9.64400889 L3.45600169,9.64400889 C2.57200067,10.2160096 2,11.2040107 2,12.296012 C2,14.3760144 4.02800236,16.0400163 6.57600532,16.0400163 C8.4480075,16.0400163 10.0600094,15.1040152 10.7880102,13.8040137 C11.5160111,15.1040152 13.1280129,16.0400163 15.0000151,16.0400163 C16.8720173,16.0400163 18.4840192,15.1040152 19.21202,13.8040137 C19.9400209,15.1040152 21.5520228,16.0400163 23.4240249,16.0400163 C25.9200278,16.0400163 28.0000303,14.3760144 28.0000303,12.296012 Z M23.4240249,2 L6.57600532,2 C6.57600532,2 5.48400405,4.44400284 4.39200278,6.4720052 L4.18400254,6.83600563 L25.8160277,6.83600563 L23.4240249,2 Z M5.01600351,17.6520182 C4.54800296,17.6520182 4.18400254,18.0160186 4.18400254,18.4840192 L4.18400254,24.1000257 C4.18400254,26.1280281 6.05600472,27.8440301 8.34400738,27.8440301 L21.6560229,27.8440301 C23.9440255,27.8440301 25.8160277,26.1800281 25.8160277,24.1000257 L25.8160277,18.4840192 C25.8160277,18.0160186 25.4520273,17.6520182 24.9840267,17.6520182 C24.5160262,17.6520182 5.48400405,17.6520182 5.01600351,17.6520182 Z" id="形状"></path>
        </g>
    </g>
</svg>