<?xml version="1.0" encoding="UTF-8"?>
<svg width="30px" height="30px" viewBox="0 0 30 30" version="1.1" xmlns="http://www.w3.org/2000/svg" xmlns:xlink="http://www.w3.org/1999/xlink">
    <title>我要逛摊</title>
    <g id="页面-1" stroke="none" stroke-width="1" fill="none" fill-rule="evenodd">
        <g id="逛街" fill="#000000" fill-rule="nonzero">
            <path d="M25.498327,10.0179066 L4.05201276,10.0179066 C1.80913835,10.0179066 0.531325568,11.7774574 1.15996837,13.7549714 L4.06780765,22.9160077 L25.4825321,22.9160077 L28.3903714,13.7549714 C29.019008,11.7774512 27.7412014,10.0179066 25.498327,10.0179066 L25.498327,10.0179066 Z M7.22049241,14.2114499 L7.22049236,14.2114499 C6.60986252,14.2114499 6.11485005,13.7164375 6.11485005,13.1058076 C6.11485005,12.4951778 6.60986252,12.0001653 7.22049236,12.0001653 C7.8311222,12.0001653 8.32613467,12.4951778 8.32613467,13.1058076 L8.32613467,13.1058076 C8.32613467,13.7164375 7.8311222,14.2114499 7.22049236,14.2114499 C7.22049236,14.2114499 7.22049236,14.2114499 7.22049236,14.2114499 L7.22049241,14.2114499 Z M22.3298782,14.2114499 L22.3298781,14.2114499 C21.7192483,14.2114499 21.2242358,13.7164375 21.2242358,13.1058076 C21.2242358,12.4951778 21.7192483,12.0001653 22.3298781,12.0001653 C22.940508,12.0001653 23.4355204,12.4951778 23.4355204,13.1058076 L23.4355204,13.1058076 C23.4355204,13.7164375 22.940508,14.2114499 22.3298781,14.2114499 C22.3298781,14.2114499 22.3298781,14.2114499 22.3298781,14.2114499 L22.3298782,14.2114499 Z M4.48640309,24.2364544 L5.19717314,26.4745903 C5.48464015,27.381217 6.83194428,28.0840896 8.19820228,28.0840896 L21.3364043,28.0840896 C22.7105597,28.0840896 24.0578638,27.381217 24.3374334,26.4745903 L25.0482035,24.2364544 L4.48640309,24.2364544 Z M8.36090199,10.0100095 L8.36090195,10.0100095 C8.71291514,6.46748095 11.8700515,3.88106768 15.41258,4.23309013 C18.4684933,4.53675059 20.8858488,6.95410547 21.1894994,10.0100095 L23.4118405,10.0100095 L23.4118405,10.0100095 C23.0524542,5.24056853 18.8947177,1.66549386 14.125247,2.02488931 C9.85553654,2.34662074 6.46185631,5.74029788 6.14012797,10.0100095 L8.36090199,10.0100095 Z" id="形状"></path>
        </g>
    </g>
</svg>