<?xml version="1.0" encoding="UTF-8"?>
<svg width="42px" height="56px" viewBox="0 0 42 56" version="1.1" xmlns="http://www.w3.org/2000/svg" xmlns:xlink="http://www.w3.org/1999/xlink">
    <title>定位</title>
    <defs>
        <linearGradient x1="50%" y1="-7.4092047%" x2="50%" y2="173.105734%" id="linearGradient-1">
            <stop stop-color="#577DFC" offset="0%"></stop>
            <stop stop-color="#FFFFFF" stop-opacity="0.524612107" offset="100%"></stop>
        </linearGradient>
    </defs>
    <g id="页面-1" stroke="none" stroke-width="1" fill="none" fill-rule="evenodd">
        <g id="切图" transform="translate(-646.000000, -724.000000)" fill="url(#linearGradient-1)">
            <g id="编组-3" transform="translate(646.000000, 724.000000)">
                <path d="M20.7478931,-1.47082346e-12 C32.0101444,0.0789760846 41.0763385,9.27238061 40.9978896,20.5346713 C40.9978896,29.1172648 34.3943605,37.763811 29.7129497,44.3603477 C26.8550845,48.3542395 24.7393252,51.1571369 21.3855809,54.7447182 C21.162346,54.9744332 20.8547149,55.1026126 20.5344147,55.0993703 C20.2124304,55.1115927 19.9012916,54.9819523 19.6832484,54.7447175 C16.3133632,51.127093 14.1744058,48.301136 11.2849399,44.2894044 C6.60350824,37.7638127 -3.87245791e-13,29.1172526 -3.87245791e-13,20.463728 C0.0389982501,9.1644872 9.19956943,0.0197623284 20.4988425,-1.47082346e-12 L20.4988425,-1.47082346e-12 Z M20.5698112,7.6962866 C13.6752254,7.67673513 8.07019792,13.2500422 8.05055941,20.1446073 C8.03100793,27.0391931 13.604315,32.6442206 20.4988801,32.6638075 L20.4988801,32.6638075 L20.5343456,32.6638075 C27.4289107,32.6638075 33.0180803,27.0746466 33.0180803,20.1800539 L33.0180803,20.1800539 L33.0143736,19.8727926 C32.8515916,13.1338494 27.3478117,7.71559318 20.5698112,7.6962866 Z" id="形状结合"></path>
            </g>
        </g>
    </g>
</svg>